<svg width="200" height="50" viewBox="0 0 200 50" fill="none" xmlns="http://www.w3.org/2000/svg">
<g clip-path="url(#clip0_73_0)">
<path d="M0 50H200V0H0V50Z" fill="#0082C3"/>
<path fill-rule="evenodd" clip-rule="evenodd" d="M74.5271 16.6779L74.5872 16.7554L71.2268 22.1407L71.0025 21.8749L70.8461 21.7009L70.5392 21.3787L70.2887 21.1312C69.0363 19.9259 66.6358 18.0781 63.7353 18.1375C59.9291 18.2086 57.0227 21.3258 57.0227 24.9548C57.0227 28.1437 58.9669 31.6966 64.1392 31.7764C67.1133 31.8131 69.1437 29.7118 70.1836 28.1974L70.3846 27.8934C70.504 27.7066 70.7838 27.2462 71.1752 26.5953L79.6749 12.2866H86.5529V37.6767H80.2228V33.8676L75.1806 33.8468L74.5073 33.851L74.3236 33.8587L74.2914 33.8649L74.2959 33.8676L74.1598 34.0181L73.998 34.1851L73.7694 34.4074L73.5771 34.5846L73.3555 34.7795L73.1047 34.9894C71.3357 36.4326 67.6334 38.696 62.2447 38.1735C56.8342 37.6568 50.212 33.3855 50.212 24.834C50.212 20.7741 53.273 12.0124 63.7964 11.7773C70.2757 11.6339 74.0171 16.0367 74.5271 16.6779ZM151.807 11.7559C155.27 11.7559 158.548 13.0839 161.071 15.5263C162.689 17.0955 163.834 18.938 164.476 20.9342L164.475 12.2864H170.416L180.294 26.3963V12.2864H186.881V37.6937H181.094L171.059 23.5384V37.6937H164.475L164.475 28.9844C163.865 30.9717 162.802 32.7569 161.328 34.2509C158.81 36.8366 155.381 38.2389 151.77 38.2389C147.985 38.2389 144.741 36.9068 142.199 34.3056L142.199 37.6937H127.99V12.291H134.528V32.0799L140.436 32.0812C139.101 29.9643 138.428 27.5152 138.428 24.7322C138.428 21.2097 139.807 17.9711 142.362 15.4939C144.915 13.0117 148.121 11.7559 151.807 11.7559ZM21.226 12.2866C25.4944 12.2866 28.4777 12.8202 31.277 15.3217C33.2874 17.1134 34.5586 19.5436 35.0147 22.5223L35.0132 12.2866H49.6394V17.8759L41.5929 17.885V22.0359L48.5605 22.0297V27.4935L41.5929 27.5005V32.1055H49.6394V37.6765H35.0132L35.0152 27.5477C34.5656 30.3264 33.3179 32.6755 31.3068 34.5492C28.4394 37.1886 25.9071 37.6936 22.1266 37.6936H12.0381V12.2866H21.226ZM104.712 12.2764V18.3504H99.6089V37.6937H93.0338V18.3504H87.9259V12.2764H104.712ZM112.641 12.284V21.9323H119.408V12.284H125.983V37.6937H119.408V27.9717H112.641V37.6937H106.069V12.284H112.641ZM21.226 17.75H18.6152V32.1138H21.2558C26.2879 32.1138 28.6662 29.9033 28.6662 24.9035C28.6662 20.3287 26.0555 17.75 21.226 17.75ZM151.844 18.0778C147.984 18.0778 144.952 21.0649 144.952 24.8012C144.952 28.829 148.195 31.9097 151.77 31.9097C155.493 31.9097 158.522 28.9652 158.522 24.8012C158.522 21.0649 155.493 18.0778 151.844 18.0778ZM80.3531 22.8062L76.9608 28.5562H80.3531V22.8062Z" fill="#FEFEFE"/>
</g>
<defs>
<clipPath id="clip0_73_0">
<rect width="200" height="50" fill="white"/>
</clipPath>
</defs>
</svg>
